<?xml version="1.0" encoding="UTF-8"?>
<svg width="44" height="48" viewBox="0 0 44 48" fill="none" xmlns="http://www.w3.org/2000/svg">
  <!-- Icon Mark Only - Light Version -->
  <!-- For dark backgrounds: footer, dark mode, navy sections -->
  
  <!-- Outer frame suggesting a gateway/portal (brackets) -->
  <path d="M2 8 L2 40 L14 40 L14 36 L6 36 L6 12 L14 12 L14 8 Z" fill="#FFFFFF"/>
  <path d="M42 8 L42 40 L30 40 L30 36 L38 36 L38 12 L30 12 L30 8 Z" fill="#FFFFFF"/>
  
  <!-- Inner "F" representing Frontier and Forward movement -->
  <path d="M16 16 L16 32 L20 32 L20 25 L26 25 L26 21 L20 21 L20 20 L28 20 L28 16 Z" fill="url(#gold-gradient)"/>
  
  <!-- Connecting bridge/path element -->
  <rect x="18" y="23" width="12" height="2" fill="url(#gold-gradient)" opacity="0.6"/>
  
  <!-- Gold gradient definition -->
  <defs>
    <linearGradient id="gold-gradient" x1="0%" y1="0%" x2="100%" y2="0%">
      <stop offset="0%" style="stop-color:#fbbf24;stop-opacity:1" />
      <stop offset="100%" style="stop-color:#f59e0b;stop-opacity:1" />
    </linearGradient>
  </defs>
</svg>
