<svg width="32" height="32" viewBox="0 0 32 32" fill="none" xmlns="http://www.w3.org/2000/svg">
  <!-- StudyFrontier Favicon - Modern SF monogram with airplane motif -->
  <rect width="32" height="32" rx="6" fill="#0ea5e9"/>
  
  <!-- Letter S -->
  <path d="M9 12.5C9 11.5 9.5 10.5 10.5 10C11.5 9.5 12.5 9.5 13.5 10C14 10.2 14.5 10.6 14.8 11L13 12C12.8 11.7 12.5 11.5 12.2 11.4C11.8 11.2 11.3 11.3 11 11.5C10.7 11.7 10.5 12 10.5 12.3C10.5 12.6 10.7 12.9 11 13.1C11.5 13.3 12 13.5 12.5 13.6C13.2 13.8 13.9 14 14.5 14.4C15 14.8 15.3 15.4 15.3 16C15.3 16.8 15 17.5 14.3 18C13.6 18.5 12.7 18.6 11.9 18.4C11.1 18.2 10.5 17.6 10.1 17L11.9 16C12.1 16.3 12.4 16.6 12.8 16.7C13.2 16.9 13.7 16.8 14 16.6C14.3 16.4 14.5 16.1 14.5 15.8C14.5 15.5 14.3 15.2 14 15C13.5 14.8 13 14.6 12.5 14.5C11.8 14.3 11.1 14 10.6 13.6C10 13.1 9.7 12.4 9.7 11.7C9.7 12.3 9.4 12.8 9 12.5Z" fill="white"/>
  
  <!-- Letter F with airplane wing -->
  <path d="M17 10H24V11.5H19V14H23V15.5H19V19H17V10Z" fill="white"/>
  
  <!-- Airplane accent -->
  <path d="M22 16L24.5 14.5L25 15L23 17L22 16Z" fill="#f97316" opacity="0.9"/>
  <circle cx="25.5" cy="14" r="1" fill="#f97316"/>
</svg>
